<svg width="20" height="20" viewBox="0 0 20 20" fill="none" xmlns="http://www.w3.org/2000/svg">
<path d="M10 6.66667C8.15833 6.66667 6.66667 8.15833 6.66667 10C6.66667 11.8417 8.15833 13.3333 10 13.3333C11.8417 13.3333 13.3333 11.8417 13.3333 10C13.3333 8.15833 11.8417 6.66667 10 6.66667ZM3.33333 12.5C2.875 12.5 2.5 12.875 2.5 13.3333V15.8333C2.5 16.75 3.25 17.5 4.16667 17.5H6.66667C7.125 17.5 7.5 17.125 7.5 16.6667C7.5 16.2083 7.125 15.8333 6.66667 15.8333H5C4.54167 15.8333 4.16667 15.4583 4.16667 15V13.3333C4.16667 12.875 3.79167 12.5 3.33333 12.5ZM4.16667 5C4.16667 4.54167 4.54167 4.16667 5 4.16667H6.66667C7.125 4.16667 7.5 3.79167 7.5 3.33333C7.5 2.875 7.125 2.5 6.66667 2.5H4.16667C3.25 2.5 2.5 3.25 2.5 4.16667V6.66667C2.5 7.125 2.875 7.5 3.33333 7.5C3.79167 7.5 4.16667 7.125 4.16667 6.66667V5ZM15.8333 2.5H13.3333C12.875 2.5 12.5 2.875 12.5 3.33333C12.5 3.79167 12.875 4.16667 13.3333 4.16667H15C15.4583 4.16667 15.8333 4.54167 15.8333 5V6.66667C15.8333 7.125 16.2083 7.5 16.6667 7.5C17.125 7.5 17.5 7.125 17.5 6.66667V4.16667C17.5 3.25 16.75 2.5 15.8333 2.5ZM15.8333 15C15.8333 15.4583 15.4583 15.8333 15 15.8333H13.3333C12.875 15.8333 12.5 16.2083 12.5 16.6667C12.5 17.125 12.875 17.5 13.3333 17.5H15.8333C16.75 17.5 17.5 16.75 17.5 15.8333V13.3333C17.5 12.875 17.125 12.5 16.6667 12.5C16.2083 12.5 15.8333 12.875 15.8333 13.3333V15Z" fill="#292929"/>
</svg>
