<svg width="16" height="16" viewBox="0 0 16 16" fill="none" xmlns="http://www.w3.org/2000/svg">
<path d="M8.00016 1.33337C4.32016 1.33337 1.3335 4.32004 1.3335 8.00004C1.3335 11.68 4.32016 14.6667 8.00016 14.6667C11.6802 14.6667 14.6668 11.68 14.6668 8.00004C14.6668 4.32004 11.6802 1.33337 8.00016 1.33337ZM6.1935 10.86L3.80016 8.46671C3.54016 8.20671 3.54016 7.78671 3.80016 7.52671C4.06016 7.26671 4.48016 7.26671 4.74016 7.52671L6.66683 9.44671L11.2535 4.86004C11.5135 4.60004 11.9335 4.60004 12.1935 4.86004C12.4535 5.12004 12.4535 5.54004 12.1935 5.80004L7.1335 10.86C6.88016 11.12 6.4535 11.12 6.1935 10.86Z" fill="#8D8D8D"/>
</svg>
