<svg width="15" height="15" viewBox="0 0 15 15" fill="none" xmlns="http://www.w3.org/2000/svg">
<path d="M2.78571 13.3333C2.78571 14.25 3.49286 15 4.35714 15H10.6429C11.5071 15 12.2143 14.25 12.2143 13.3333V3.33333H2.78571V13.3333ZM5.27643 7.99167C4.97 7.66667 4.97 7.14167 5.27643 6.81667C5.58286 6.49167 6.07786 6.49167 6.38429 6.81667L7.5 7.99167L8.60786 6.81667C8.91429 6.49167 9.40929 6.49167 9.71571 6.81667C10.0221 7.14167 10.0221 7.66667 9.71571 7.99167L8.60786 9.16667L9.71571 10.3417C10.0221 10.6667 10.0221 11.1917 9.71571 11.5167C9.40929 11.8417 8.91429 11.8417 8.60786 11.5167L7.5 10.3417L6.39214 11.5167C6.08571 11.8417 5.59071 11.8417 5.28429 11.5167C4.97786 11.1917 4.97786 10.6667 5.28429 10.3417L6.39214 9.16667L5.27643 7.99167ZM12.2143 0.833333H10.25L9.69214 0.241667C9.55071 0.0916666 9.34643 0 9.14214 0H5.85786C5.65357 0 5.44929 0.0916666 5.30786 0.241667L4.75 0.833333H2.78571C2.35357 0.833333 2 1.20833 2 1.66667C2 2.125 2.35357 2.5 2.78571 2.5H12.2143C12.6464 2.5 13 2.125 13 1.66667C13 1.20833 12.6464 0.833333 12.2143 0.833333Z" fill="#292929"/>
</svg>
