<svg width="16" height="15" viewBox="0 0 16 15" fill="none" xmlns="http://www.w3.org/2000/svg">
<path d="M13.8332 5.7501V2.16676C13.8332 1.70843 13.4582 1.33343 12.9998 1.33343H12.1665C11.7082 1.33343 11.3332 1.70843 11.3332 2.16676V3.5001L8.55817 1.0001C8.2415 0.716764 7.75817 0.716764 7.4415 1.0001L0.474838 7.2751C0.191504 7.5251 0.366504 8.0001 0.749838 8.0001H2.1665V13.8334C2.1665 14.2918 2.5415 14.6668 2.99984 14.6668H5.49984C5.95817 14.6668 6.33317 14.2918 6.33317 13.8334V9.66676H9.6665V13.8334C9.6665 14.2918 10.0415 14.6668 10.4998 14.6668H12.9998C13.4582 14.6668 13.8332 14.2918 13.8332 13.8334V8.0001H15.2498C15.6332 8.0001 15.8165 7.5251 15.5248 7.2751L13.8332 5.7501Z" fill="#292929"/>
</svg>
