<svg width="40" height="43" viewBox="0 0 40 43" fill="none" xmlns="http://www.w3.org/2000/svg">
<path fill-rule="evenodd" clip-rule="evenodd" d="M22.2673 6.3915C21.0499 6.13934 19.7887 6.00684 18.4965 6.00684C8.28117 6.00684 0 14.288 0 24.5034C0 34.7187 8.28117 42.9999 18.4965 42.9999C28.7119 42.9999 36.993 34.7187 36.993 24.5034C36.993 20.6165 35.7941 17.0097 33.746 14.0325L32.0229 25.5229C31.9721 26.2064 31.8707 26.8757 31.7223 27.5272L31.6062 28.3015L31.5367 28.2495C29.9111 33.9187 24.6883 38.0675 18.4965 38.0675C11.0053 38.0675 4.9324 31.9946 4.9324 24.5034C4.9324 19.6894 7.4402 15.4611 11.2206 13.0538L11.1904 13.0311L22.2673 6.3915Z" fill="#2A70FA"/>
<path d="M30.8325 5.61916C30.8325 5.61916 13.7816 12.8912 10.1433 18.7322C6.80745 24.0875 8.73694 30.0956 13.2535 32.9089C17.77 35.7223 24.0132 34.805 27.3491 29.4497C31.2721 23.1516 30.8325 5.61916 30.8325 5.61916Z" fill="#CC3636"/>
</svg>
