<svg width="24" height="24" viewBox="0 0 24 24" fill="none" xmlns="http://www.w3.org/2000/svg">
<path fill-rule="evenodd" clip-rule="evenodd" d="M15.0807 19.5196H9.33072H6.45572C5.92864 19.5196 5.49739 19.0884 5.49739 18.5613V11.853H3.86822C3.42739 11.853 3.22614 11.3067 3.55197 11.0192L11.5636 3.80297C11.9278 3.47714 12.4836 3.47714 12.8478 3.80297L20.8595 11.0192C21.1949 11.3067 20.9841 11.853 20.5432 11.853H18.9141V18.5613C18.9141 19.0884 18.4828 19.5196 17.9557 19.5196H15.0807ZM12.2181 8.82665C12.5592 8.82665 12.8357 9.10318 12.8357 9.4443V12.4335H15.8249C16.166 12.4335 16.4426 12.71 16.4426 13.0511C16.4426 13.3922 16.166 13.6688 15.8249 13.6688H12.8357V16.6827C12.8357 17.0238 12.5592 17.3003 12.2181 17.3003C11.877 17.3003 11.6004 17.0238 11.6004 16.6827V13.6688H8.58652C8.2454 13.6688 7.96887 13.3922 7.96887 13.0511C7.96887 12.71 8.2454 12.4335 8.58652 12.4335H11.6004V9.4443C11.6004 9.10318 11.877 8.82665 12.2181 8.82665Z" fill="#292929"/>
</svg>
