<svg width="23" height="23" viewBox="0 0 23 23" fill="none" xmlns="http://www.w3.org/2000/svg">
<path d="M10.5417 17.25H12.4583C12.9854 17.25 13.4167 16.8187 13.4167 16.2917C13.4167 15.7646 12.9854 15.3333 12.4583 15.3333H10.5417C10.0146 15.3333 9.58333 15.7646 9.58333 16.2917C9.58333 16.8187 10.0146 17.25 10.5417 17.25ZM2.875 6.70833C2.875 7.23542 3.30625 7.66667 3.83333 7.66667H19.1667C19.6937 7.66667 20.125 7.23542 20.125 6.70833C20.125 6.18125 19.6937 5.75 19.1667 5.75H3.83333C3.30625 5.75 2.875 6.18125 2.875 6.70833ZM6.70833 12.4583H16.2917C16.8187 12.4583 17.25 12.0271 17.25 11.5C17.25 10.9729 16.8187 10.5417 16.2917 10.5417H6.70833C6.18125 10.5417 5.75 10.9729 5.75 11.5C5.75 12.0271 6.18125 12.4583 6.70833 12.4583Z" fill="#292929"/>
</svg>
