<svg width="117" height="116" viewBox="0 0 117 116" fill="none" xmlns="http://www.w3.org/2000/svg">
<path fill-rule="evenodd" clip-rule="evenodd" d="M39.0666 57.9C39.0666 47.2184 47.7182 38.5667 58.3999 38.5667C69.0816 38.5667 77.7332 47.2184 77.7332 57.9C77.7332 68.5817 69.0816 77.2334 58.3999 77.2334C47.7182 77.2334 39.0666 68.5817 39.0666 57.9ZM14.8999 77.2334C14.8999 74.575 17.0749 72.4 19.7332 72.4C22.3916 72.4 24.5666 74.575 24.5666 77.2334V86.9C24.5666 89.5584 26.7416 91.7334 29.3999 91.7334H39.0666C41.7249 91.7334 43.8999 93.9084 43.8999 96.5667C43.8999 99.225 41.7249 101.4 39.0666 101.4H24.5666C19.2499 101.4 14.8999 97.05 14.8999 91.7334V77.2334ZM29.3999 24.0667C26.7416 24.0667 24.5666 26.2417 24.5666 28.9V38.5667C24.5666 41.225 22.3916 43.4 19.7332 43.4C17.0749 43.4 14.8999 41.225 14.8999 38.5667V24.0667C14.8999 18.75 19.2499 14.4 24.5666 14.4H39.0666C41.7249 14.4 43.8999 16.575 43.8999 19.2334C43.8999 21.8917 41.7249 24.0667 39.0666 24.0667H29.3999ZM77.7332 14.4H92.2332C97.5499 14.4 101.9 18.75 101.9 24.0667V38.5667C101.9 41.225 99.7249 43.4 97.0666 43.4C94.4082 43.4 92.2332 41.225 92.2332 38.5667V28.9C92.2332 26.2417 90.0582 24.0667 87.3999 24.0667H77.7332C75.0749 24.0667 72.8999 21.8917 72.8999 19.2334C72.8999 16.575 75.0749 14.4 77.7332 14.4ZM87.3999 91.7334C90.0582 91.7334 92.2332 89.5584 92.2332 86.9V77.2334C92.2332 74.575 94.4082 72.4 97.0666 72.4C99.7249 72.4 101.9 74.575 101.9 77.2334V91.7334C101.9 97.05 97.5499 101.4 92.2332 101.4H77.7332C75.0749 101.4 72.8999 99.225 72.8999 96.5667C72.8999 93.9084 75.0749 91.7334 77.7332 91.7334H87.3999ZM47.3 46.4H69.7C71.24 46.4 72.5 47.66 72.5 49.2V66C72.5 67.54 71.24 68.8 69.7 68.8H47.3C45.76 68.8 44.5 67.54 44.5 66V49.2C44.5 47.66 45.76 46.4 47.3 46.4ZM51.654 61.8C52.06 61.8 52.396 61.464 52.396 61.058V54.324C52.396 53.806 51.976 53.4 51.472 53.4C51.276 53.4 51.094 53.456 50.94 53.568L49.274 54.758C48.952 54.996 48.882 55.43 49.092 55.766C49.33 56.13 49.82 56.214 50.156 55.962L50.786 55.5V61.058C50.786 61.464 51.122 61.8 51.528 61.8H51.654ZM56.176 61.8H59.914C60.292 61.8 60.614 61.478 60.614 61.1C60.614 60.722 60.306 60.414 59.928 60.414H57.296L57.254 60.344C57.8468 59.7513 58.3255 59.2779 58.687 58.9206C58.906 58.704 59.0819 58.5301 59.214 58.398C60.068 57.558 60.502 56.69 60.502 55.794C60.502 55.458 60.432 54.338 59.228 53.722C58.57 53.4 57.464 53.218 56.498 53.68C56.078 53.89 55.77 54.156 55.56 54.422C55.238 54.814 55.392 55.416 55.868 55.612C56.19 55.752 56.554 55.668 56.764 55.388C56.974 55.094 57.296 54.87 57.772 54.87C58.472 54.87 58.906 55.318 58.906 55.878C58.906 56.396 58.71 56.774 58.15 57.362C57.674 57.866 56.792 58.748 55.462 60.078C55.28 60.26 55.168 60.526 55.168 60.792C55.168 61.352 55.616 61.8 56.176 61.8ZM65.486 61.8C67.166 61.8 67.838 60.792 67.95 60.61C68.398 59.924 68.454 58.874 67.936 58.146C67.698 57.81 67.376 57.572 66.984 57.418V57.32C67.264 57.18 67.502 56.956 67.712 56.648C68.076 56.074 68.146 55.15 67.684 54.45L67.6794 54.4436C67.5555 54.2729 66.9222 53.4 65.416 53.4C64.324 53.4 63.638 53.89 63.26 54.38C62.98 54.73 63.12 55.262 63.54 55.43L63.652 55.472C63.946 55.598 64.268 55.486 64.464 55.234C64.66 54.996 64.954 54.814 65.402 54.814C66.018 54.814 66.452 55.178 66.452 55.724C66.452 56.536 65.682 56.732 65.22 56.732V56.746C64.87 56.774 64.59 57.068 64.59 57.432C64.59 57.81 64.898 58.132 65.276 58.132C66.06 58.132 66.732 58.468 66.732 59.238C66.732 59.924 66.06 60.316 65.486 60.316C64.8 60.316 64.45 59.966 64.254 59.63C64.086 59.35 63.736 59.238 63.428 59.364L63.26 59.434C62.868 59.588 62.714 60.064 62.924 60.428C63.7417 61.8455 65.3556 61.8034 65.4793 61.8002C65.4826 61.8001 65.4849 61.8 65.486 61.8Z" fill="#D0DCF4"/>
</svg>
