<svg width="133" height="132" viewBox="0 0 133 132" fill="none" xmlns="http://www.w3.org/2000/svg">
<g clip-path="url(#clip0)">
<path d="M10.8367 10.9535C8.65918 8.776 5.14168 8.776 2.96418 10.9535C0.78668 13.131 0.78668 16.6485 2.96418 18.826L26.805 42.6668C17.5925 42.7227 10.1667 50.2043 10.1667 59.4168V81.7502C10.1667 87.8918 15.1917 92.9168 21.3333 92.9168H32.5V104.084C32.5 110.225 37.525 115.25 43.6667 115.25H88.3334C91.4042 115.25 94.14 114.022 96.15 112.012L111.951 127.813C114.128 129.99 117.646 129.99 119.823 127.813C122.001 125.635 122.001 122.118 119.823 119.94L10.8367 10.9535ZM82.75 104.084H49.25C46.1792 104.084 43.6667 101.571 43.6667 98.5002V76.1668H60.305L86.6583 102.52C85.5975 103.469 84.2575 104.084 82.75 104.084ZM105.083 42.6668H58.3509L108.601 92.9168H110.667C116.808 92.9168 121.833 87.8918 121.833 81.7502V59.4168C121.833 50.1485 114.352 42.6668 105.083 42.6668ZM105.083 65.0002C102.013 65.0002 99.5 62.4877 99.5 59.4168C99.5 56.346 102.013 53.8335 105.083 53.8335C108.154 53.8335 110.667 56.346 110.667 59.4168C110.667 62.4877 108.154 65.0002 105.083 65.0002ZM93.9167 37.0835C96.9875 37.0835 99.5 34.571 99.5 31.5002V20.3335C99.5 17.2627 96.9875 14.7502 93.9167 14.7502H38.0833C36.0175 14.7502 34.2867 15.9227 33.3375 17.5977L52.7675 37.0835H93.9167Z" fill="#F2DCDC"/>
</g>
<defs>
<clipPath id="clip0">
<rect width="132" height="132" fill="white" transform="translate(0.5)"/>
</clipPath>
</defs>
</svg>
