<svg width="126" height="139" viewBox="0 0 126 139" fill="none" xmlns="http://www.w3.org/2000/svg">
<path fill-rule="evenodd" clip-rule="evenodd" d="M71.6462 20.5654C67.729 19.7541 63.671 19.3278 59.5134 19.3278C26.645 19.3278 0 45.9728 0 78.8411C0 111.709 26.645 138.355 59.5134 138.355C92.3817 138.355 119.027 111.709 119.027 78.8411C119.027 66.3376 115.171 54.7347 108.583 45.1566L103.024 82.2613C102.862 84.3603 102.551 86.4176 102.101 88.4228L102.037 88.8526L102.008 88.8318C97.4904 108.12 80.1793 122.484 59.5134 122.484C35.4099 122.484 15.8702 102.945 15.8702 78.8411C15.8702 63.3508 23.9404 49.7453 36.1057 41.9998L36.0056 41.9286L71.6462 20.5654Z" fill="white"/>
<path d="M99.2049 18.0799C99.2049 18.0799 44.3428 41.4781 32.6363 60.2718C21.9032 77.5027 28.1114 96.8339 42.6435 105.886C57.1756 114.938 77.2636 111.987 87.9967 94.7557C100.619 74.4912 99.2049 18.0799 99.2049 18.0799Z" fill="#CC3636"/>
</svg>
