<svg width="14" height="14" viewBox="0 0 14 14" fill="none" xmlns="http://www.w3.org/2000/svg">
<path d="M11.6977 10.781C12.6142 9.6565 13.1667 8.2265 13.1667 6.6665C13.1667 3.0785 10.2547 0.166504 6.66675 0.166504C3.07875 0.166504 0.166748 3.0785 0.166748 6.6665C0.166748 10.2545 3.07875 13.1665 6.66675 13.1665C8.22675 13.1665 9.65675 12.614 10.7812 11.6975C10.9567 11.5545 11.1257 11.3985 11.2882 11.236C11.3077 11.2165 11.3207 11.197 11.3337 11.184C11.4637 11.054 11.5872 10.9175 11.6977 10.781ZM6.66675 11.8665C3.80025 11.8665 1.46675 9.533 1.46675 6.6665C1.46675 3.8 3.80025 1.4665 6.66675 1.4665C9.53325 1.4665 11.8667 3.8 11.8667 6.6665C11.8667 7.869 11.4572 8.9675 10.7682 9.8515L9.83875 8.922C10.2872 8.285 10.5537 7.5115 10.5537 6.673C10.5537 4.5215 8.80525 2.773 6.65375 2.773C4.50225 2.773 2.75375 4.5215 2.75375 6.673C2.75375 8.8245 4.50225 10.573 6.65375 10.573C7.49875 10.573 8.28525 10.3 8.92225 9.8385L9.84525 10.7615C8.96775 11.457 7.86925 11.8665 6.66675 11.8665ZM7.91475 6.998C8.02525 6.569 7.92775 6.101 7.59625 5.763L7.58325 5.75C7.08275 5.2495 6.28325 5.243 5.77625 5.724C5.76975 5.7305 5.75675 5.737 5.74375 5.75C5.23675 6.257 5.23675 7.0825 5.74375 7.5895L5.75675 7.6025C6.09475 7.934 6.56925 8.038 6.99825 7.921L7.97975 8.9025C7.58975 9.1365 7.14125 9.2795 6.65375 9.2795C5.21725 9.2795 4.05375 8.116 4.05375 6.6795C4.05375 5.243 5.21725 4.0795 6.65375 4.0795C8.09025 4.0795 9.25375 5.243 9.25375 6.6795C9.25375 7.154 9.11725 7.596 8.88975 7.9795L7.91475 6.998Z" fill="#6D96E4"/>
</svg>
