<svg width="106" height="106" viewBox="0 0 106 106" fill="none" xmlns="http://www.w3.org/2000/svg">
<path d="M44.1667 70.6667V35.3333C44.1667 30.475 48.0975 26.5 53 26.5H92.75V22.0833C92.75 17.225 88.775 13.25 83.9167 13.25H22.0833C17.1808 13.25 13.25 17.225 13.25 22.0833V83.9167C13.25 88.775 17.1808 92.75 22.0833 92.75H83.9167C88.775 92.75 92.75 88.775 92.75 83.9167V79.5H53C48.0975 79.5 44.1667 75.525 44.1667 70.6667ZM57.4167 35.3333C54.9875 35.3333 53 37.3208 53 39.75V66.25C53 68.6792 54.9875 70.6667 57.4167 70.6667H97.1667V35.3333H57.4167ZM70.6667 59.625C67.0008 59.625 64.0417 56.6658 64.0417 53C64.0417 49.3342 67.0008 46.375 70.6667 46.375C74.3325 46.375 77.2917 49.3342 77.2917 53C77.2917 56.6658 74.3325 59.625 70.6667 59.625Z" fill="#D0DCF4"/>
</svg>
