<svg width="120" height="120" viewBox="0 0 120 120" fill="none" xmlns="http://www.w3.org/2000/svg">
<path d="M22.3511 105H97.6511C105.351 105 110.151 96.6504 106.301 90.0004L68.6511 24.9504C64.8011 18.3004 55.2011 18.3004 51.3511 24.9504L13.7011 90.0004C9.85109 96.6504 14.6511 105 22.3511 105ZM60.0011 70.0004C57.2511 70.0004 55.0011 67.7504 55.0011 65.0004V55.0004C55.0011 52.2504 57.2511 50.0004 60.0011 50.0004C62.7511 50.0004 65.0011 52.2504 65.0011 55.0004V65.0004C65.0011 67.7504 62.7511 70.0004 60.0011 70.0004ZM65.0011 90.0004H55.0011V80.0004H65.0011V90.0004Z" fill="#F2DCDC"/>
</svg>
