<svg width="18" height="17" viewBox="0 0 18 17" fill="none" xmlns="http://www.w3.org/2000/svg">
<path d="M15.0714 0H2.92857C1.59286 0 0.5 1.09286 0.5 2.42857V14.5714C0.5 15.9071 1.59286 17 2.92857 17H15.0714C16.4071 17 17.5 15.9071 17.5 14.5714V2.42857C17.5 1.09286 16.4071 0 15.0714 0ZM15.0714 3.64286C15.0714 4.31071 14.525 4.85714 13.8571 4.85714H4.14286C3.475 4.85714 2.92857 4.31071 2.92857 3.64286C2.92857 2.975 3.475 2.42857 4.14286 2.42857H13.8571C14.525 2.42857 15.0714 2.975 15.0714 3.64286ZM7.78571 9.71429V7.28571H10.2143V9.71429H7.78571ZM10.2143 12.1429V14.5714H7.78571V12.1429H10.2143ZM5.35714 9.71429H2.92857V7.28571H5.35714V9.71429ZM12.6429 7.28571H15.0714V9.71429H12.6429V7.28571ZM2.92857 12.1429H5.35714V14.5714H2.92857V12.1429ZM12.6429 14.5714V12.1429H15.0714V14.5714H12.6429Z" fill="#292929"/>
</svg>
