<svg width="20" height="20" viewBox="0 0 20 20" fill="none" xmlns="http://www.w3.org/2000/svg">
<path d="M14.9997 6.66658H14.1663V4.99992C14.1663 2.69992 12.2997 0.833252 9.99967 0.833252C7.69967 0.833252 5.83301 2.69992 5.83301 4.99992V6.66658H4.99967C4.08301 6.66658 3.33301 7.41658 3.33301 8.33325V16.6666C3.33301 17.5833 4.08301 18.3333 4.99967 18.3333H14.9997C15.9163 18.3333 16.6663 17.5833 16.6663 16.6666V8.33325C16.6663 7.41658 15.9163 6.66658 14.9997 6.66658ZM9.99967 14.1666C9.08301 14.1666 8.33301 13.4166 8.33301 12.4999C8.33301 11.5833 9.08301 10.8333 9.99967 10.8333C10.9163 10.8333 11.6663 11.5833 11.6663 12.4999C11.6663 13.4166 10.9163 14.1666 9.99967 14.1666ZM7.49967 6.66658V4.99992C7.49967 3.61659 8.61634 2.49992 9.99967 2.49992C11.383 2.49992 12.4997 3.61659 12.4997 4.99992V6.66658H7.49967Z" fill="#292929"/>
</svg>
