<svg width="19" height="19" viewBox="0 0 19 19" fill="none" xmlns="http://www.w3.org/2000/svg">
<g clip-path="url(#clip0)">
<path d="M0.534406 0.311576C0.4305 0.359818 0.293195 0.463725 0.230109 0.541654C-0.0148126 0.838529 3.11969e-05 0.333842 3.11969e-05 7.6815C3.11969e-05 15.211 -0.0259454 14.6098 0.289484 14.9067C0.4305 15.0403 1.17269 15.4411 4.04495 16.9254C7.51468 18.7215 7.62972 18.7809 7.80413 18.7661C7.90433 18.7586 8.01194 18.7215 8.05648 18.6807C8.2346 18.5211 8.23831 18.484 8.23831 16.5729V14.7731L10.4203 14.762L12.5987 14.7508L12.7731 14.6655C12.8696 14.6172 12.9994 14.517 13.0662 14.4465C13.3149 14.1608 13.3037 14.3167 13.3149 11.3999L13.326 8.75767H12.3983H11.4705L11.4594 10.6651C11.4483 12.528 11.4483 12.5762 11.3703 12.6801C11.1996 12.9139 11.1848 12.9139 9.64847 12.9065L8.25687 12.8954L8.23831 8.83189C8.21605 4.31197 8.23831 4.64966 7.9637 4.37505C7.87093 4.28228 7.21038 3.92603 5.73714 3.169L3.64417 2.09654L7.35882 2.0854C10.0826 2.07798 11.1032 2.08912 11.1811 2.1188C11.2367 2.14107 11.3221 2.21529 11.3666 2.27837C11.4446 2.3897 11.4483 2.43052 11.4594 3.38794L11.4705 4.37876L12.3871 4.37134L13.3037 4.36021V2.65318C13.3037 1.00181 13.3 0.942435 13.2258 0.779154C13.1405 0.589896 12.9623 0.400639 12.7879 0.304154C12.6803 0.244779 12.2684 0.241068 6.69827 0.233646L0.723664 0.222514L0.534406 0.311576Z" fill="#292929"/>
<path d="M14.5069 2.5827C14.1284 2.70145 13.8464 3.15048 13.9021 3.54012C13.954 3.8704 14.0728 4.03368 14.8112 4.76844L15.52 5.47352L12.7665 5.49208C10.0353 5.51063 10.0093 5.51063 9.86085 5.58856C9.53799 5.76298 9.35987 6.03758 9.33018 6.40868C9.28565 6.97274 9.59366 7.39579 10.1206 7.49227C10.2616 7.51825 11.245 7.53309 12.9372 7.53309L15.5386 7.5368L14.8075 8.2493C14.0394 8.99891 13.9577 9.10653 13.9058 9.4702C13.8687 9.72255 13.9614 10.012 14.1433 10.1975C14.34 10.4016 14.4884 10.4722 14.763 10.4944C14.956 10.5093 15.0265 10.4944 15.2083 10.4128C15.4013 10.3237 15.6277 10.1122 17.0267 8.70946C18.0991 7.637 18.6558 7.05438 18.7114 6.94676C18.8265 6.71298 18.845 6.47176 18.7671 6.23055C18.7077 6.0413 18.5964 5.92255 17.0527 4.37509C15.9653 3.28407 15.3493 2.69032 15.2454 2.64208C15.0339 2.53446 14.7296 2.50848 14.5069 2.5827Z" fill="#292929"/>
</g>
<defs>
<clipPath id="clip0">
<rect width="19" height="19" fill="white"/>
</clipPath>
</defs>
</svg>
