<svg width="20" height="19" viewBox="0 0 20 19" fill="none" xmlns="http://www.w3.org/2000/svg">
<path d="M15.5413 6.33333H4.45801C3.14384 6.33333 2.08301 7.39417 2.08301 8.70833V11.875C2.08301 12.7458 2.79551 13.4583 3.66634 13.4583H5.24967V15.0417C5.24967 15.9125 5.96217 16.625 6.83301 16.625H13.1663C14.0372 16.625 14.7497 15.9125 14.7497 15.0417V13.4583H16.333C17.2038 13.4583 17.9163 12.7458 17.9163 11.875V8.70833C17.9163 7.39417 16.8555 6.33333 15.5413 6.33333ZM12.3747 15.0417H7.62467C7.18926 15.0417 6.83301 14.6854 6.83301 14.25V11.0833H13.1663V14.25C13.1663 14.6854 12.8101 15.0417 12.3747 15.0417ZM15.5413 9.5C15.1059 9.5 14.7497 9.14375 14.7497 8.70833C14.7497 8.27292 15.1059 7.91667 15.5413 7.91667C15.9768 7.91667 16.333 8.27292 16.333 8.70833C16.333 9.14375 15.9768 9.5 15.5413 9.5ZM13.958 2.375H6.04134C5.60592 2.375 5.24967 2.73125 5.24967 3.16667V4.75C5.24967 5.18542 5.60592 5.54167 6.04134 5.54167H13.958C14.3934 5.54167 14.7497 5.18542 14.7497 4.75V3.16667C14.7497 2.73125 14.3934 2.375 13.958 2.375Z" fill="#292929"/>
</svg>
