<svg width="25" height="25" viewBox="0 0 25 25" fill="none" xmlns="http://www.w3.org/2000/svg">
<path d="M20.3125 12.5002C20.3125 12.2606 20.3021 12.0314 20.2813 11.7918L22.2188 10.3231C22.6354 10.0106 22.75 9.42725 22.4896 8.96891L20.5417 5.60433C20.2813 5.146 19.7188 4.9585 19.2396 5.16683L17 6.11475C16.6146 5.84391 16.2084 5.60433 15.7813 5.40641L15.4792 3.00016C15.4167 2.47933 14.9688 2.0835 14.4479 2.0835H10.5625C10.0313 2.0835 9.58335 2.47933 9.52085 3.00016L9.21877 5.40641C8.79168 5.60433 8.38543 5.84391 8.00002 6.11475L5.76043 5.16683C5.28127 4.9585 4.71877 5.146 4.45835 5.60433L2.51043 8.97933C2.25002 9.43766 2.3646 10.0106 2.78127 10.3335L4.71877 11.8022C4.69793 12.0314 4.68752 12.2606 4.68752 12.5002C4.68752 12.7397 4.69793 12.9689 4.71877 13.2085L2.78127 14.6772C2.3646 14.9897 2.25002 15.5731 2.51043 16.0314L4.45835 19.396C4.71877 19.8543 5.28127 20.0418 5.76043 19.8335L8.00002 18.8856C8.38543 19.1564 8.79168 19.396 9.21877 19.5939L9.52085 22.0002C9.58335 22.521 10.0313 22.9168 10.5521 22.9168H14.4375C14.9584 22.9168 15.4063 22.521 15.4688 22.0002L15.7709 19.5939C16.1979 19.396 16.6042 19.1564 16.9896 18.8856L19.2292 19.8335C19.7083 20.0418 20.2708 19.8543 20.5313 19.396L22.4792 16.0314C22.7396 15.5731 22.625 15.0002 22.2083 14.6772L20.2708 13.2085C20.3021 12.9689 20.3125 12.7397 20.3125 12.5002ZM12.5417 16.146C10.5313 16.146 8.89585 14.5106 8.89585 12.5002C8.89585 10.4897 10.5313 8.85433 12.5417 8.85433C14.5521 8.85433 16.1875 10.4897 16.1875 12.5002C16.1875 14.5106 14.5521 16.146 12.5417 16.146Z" fill="#2A70FA"/>
</svg>
