<svg width="25" height="25" viewBox="0 0 25 25" fill="none" xmlns="http://www.w3.org/2000/svg">
<path d="M19.7917 3.125H5.20833C4.0625 3.125 3.125 4.0625 3.125 5.20833V19.7917C3.125 20.9375 4.0625 21.875 5.20833 21.875H19.7917C20.9375 21.875 21.875 20.9375 21.875 19.7917V5.20833C21.875 4.0625 20.9375 3.125 19.7917 3.125ZM8.33333 17.7083C7.76042 17.7083 7.29167 17.2396 7.29167 16.6667V11.4583C7.29167 10.8854 7.76042 10.4167 8.33333 10.4167C8.90625 10.4167 9.375 10.8854 9.375 11.4583V16.6667C9.375 17.2396 8.90625 17.7083 8.33333 17.7083ZM12.5 17.7083C11.9271 17.7083 11.4583 17.2396 11.4583 16.6667V8.33333C11.4583 7.76042 11.9271 7.29167 12.5 7.29167C13.0729 7.29167 13.5417 7.76042 13.5417 8.33333V16.6667C13.5417 17.2396 13.0729 17.7083 12.5 17.7083ZM16.6667 17.7083C16.0937 17.7083 15.625 17.2396 15.625 16.6667V14.5833C15.625 14.0104 16.0937 13.5417 16.6667 13.5417C17.2396 13.5417 17.7083 14.0104 17.7083 14.5833V16.6667C17.7083 17.2396 17.2396 17.7083 16.6667 17.7083Z" fill="#2A70FA"/>
</svg>
