<svg width="116" height="116" viewBox="0 0 116 116" fill="none" xmlns="http://www.w3.org/2000/svg">
<path fill-rule="evenodd" clip-rule="evenodd" d="M91.8326 24.1666V44.95L101.644 53.795C103.336 55.245 102.273 58 100.049 58H91.8326V91.8333C91.8326 94.4916 89.6576 96.6666 86.9993 96.6666H72.4993C69.8409 96.6666 67.6659 94.4916 67.6659 91.8333V67.6666H48.3326V91.8333C48.3326 94.4916 46.1576 96.6666 43.4993 96.6666H28.9993C26.3409 96.6666 24.1659 94.4916 24.1659 91.8333V58H15.9493C13.7259 58 12.7109 55.245 14.3543 53.795L54.7609 17.4C56.5976 15.7566 59.4009 15.7566 61.2376 17.4L77.3326 31.9V24.1666C77.3326 21.5083 79.5076 19.3333 82.1659 19.3333H86.9993C89.6576 19.3333 91.8326 21.5083 91.8326 24.1666ZM46.5 45.5001C46.5 39.1521 51.652 34.0001 58 34.0001C64.348 34.0001 69.5 39.1521 69.5 45.5001C69.5 51.8481 64.348 57.0001 58 57.0001C51.652 57.0001 46.5 51.8481 46.5 45.5001ZM50.755 46.3051L54.8835 50.4336C55.332 50.8821 56.068 50.8821 56.505 50.4336L65.2335 41.7051C65.682 41.2566 65.682 40.5321 65.2335 40.0836C64.785 39.6351 64.0605 39.6351 63.612 40.0836L55.7 47.9956L52.3765 44.6836C51.928 44.2351 51.2035 44.2351 50.755 44.6836C50.3065 45.1321 50.3065 45.8566 50.755 46.3051Z" fill="#D0DCF4"/>
</svg>
