<svg width="14" height="14" viewBox="0 0 14 14" fill="none" xmlns="http://www.w3.org/2000/svg">
<path d="M11.6977 10.7811C12.6142 9.65663 13.1667 8.22663 13.1667 6.66663C13.1667 3.07863 10.2547 0.166626 6.66675 0.166626C3.07875 0.166626 0.166748 3.07863 0.166748 6.66663C0.166748 10.2546 3.07875 13.1666 6.66675 13.1666C8.22675 13.1666 9.65675 12.6141 10.7812 11.6976C10.9567 11.5546 11.1257 11.3986 11.2882 11.2361C11.3077 11.2166 11.3207 11.1971 11.3337 11.1841C11.4637 11.0541 11.5872 10.9176 11.6977 10.7811ZM6.66675 11.8666C3.80025 11.8666 1.46675 9.53313 1.46675 6.66663C1.46675 3.80013 3.80025 1.46663 6.66675 1.46663C9.53325 1.46663 11.8667 3.80013 11.8667 6.66663C11.8667 7.86913 11.4572 8.96763 10.7682 9.85163L9.83875 8.92213C10.2872 8.28513 10.5537 7.51163 10.5537 6.67313C10.5537 4.52163 8.80525 2.77313 6.65375 2.77313C4.50225 2.77313 2.75375 4.52163 2.75375 6.67313C2.75375 8.82463 4.50225 10.5731 6.65375 10.5731C7.49875 10.5731 8.28525 10.3001 8.92225 9.83862L9.84525 10.7616C8.96775 11.4571 7.86925 11.8666 6.66675 11.8666ZM7.91475 6.99813C8.02525 6.56913 7.92775 6.10113 7.59625 5.76313L7.58325 5.75013C7.08275 5.24963 6.28325 5.24313 5.77625 5.72413C5.76975 5.73063 5.75675 5.73713 5.74375 5.75013C5.23675 6.25713 5.23675 7.08263 5.74375 7.58963L5.75675 7.60263C6.09475 7.93413 6.56925 8.03813 6.99825 7.92113L7.97975 8.90263C7.58975 9.13663 7.14125 9.27963 6.65375 9.27963C5.21725 9.27963 4.05375 8.11613 4.05375 6.67963C4.05375 5.24313 5.21725 4.07963 6.65375 4.07963C8.09025 4.07963 9.25375 5.24313 9.25375 6.67963C9.25375 7.15413 9.11725 7.59613 8.88975 7.97963L7.91475 6.99813Z" fill="#6D96E4"/>
</svg>
